# File created by Blade
# Date/Time:  Wed Jan 21 18:02:19 2015
# Frame Rate: 120.000 fps
#------------------------------------------------------
:FULLY-SPECIFIED
:DEGREES
471
root 19.204586 35.248399 -19.554419 -171.907656 6.822896 -176.891651
Spine -11.245443 13.147867 -10.598944
Head -4.817189 -11.822245 14.947353
LeftShoulder -2.388671 -22.358250 -0.378070
LeftArm -15.195986 13.822377 -69.303925
LeftForeArm -4.083007 -0.000000 0.970764
LeftHand -1.597141 -0.000000 -2.991633
LeftHandThumb1 -26.253704 0.000000 33.147579
RightShoulder -2.976297 -10.396297 13.896067
RightArm 36.279024 -43.685627 48.828408
RightForeArm -22.078009 -0.000000 20.307027
RightHand 3.709307 -0.000000 10.848848
RightHandThumb1 -24.326973 -0.000000 -32.862282
LeftUpLeg -16.023337 2.709454 -5.214470
LeftLeg 20.707764 -0.000000 -0.000000
LeftFoot -28.652670 26.061467 -10.689702
LeftToeBase 21.730022 -0.000000 -0.000000
RightUpLeg -17.868438 -15.747413 7.030162
RightLeg 38.475541 -0.000000 -0.000000
RightFoot -21.177749 -8.893291 23.809594
RightToeBase 7.305697 -0.000000 -0.000000
472
root 19.228692 35.291125 -19.545062 -171.921563 7.065298 -176.450029
Spine -11.350045 13.573771 -11.003507
Head -5.270742 -12.234360 16.485901
LeftShoulder -2.031039 -22.561466 0.083037
LeftArm -15.235849 14.021055 -69.304045
LeftForeArm -4.101488 -0.000000 0.841239
LeftHand -1.751424 0.000000 -3.339583
LeftHandThumb1 -26.253704 0.000000 33.147579
RightShoulder -3.105021 -10.365765 14.426833
RightArm 37.573227 -44.570582 47.278959
RightForeArm -22.057883 -0.000000 20.146677
RightHand 3.716487 -0.000000 10.696748
RightHandThumb1 -24.326973 -0.000000 -32.862282
LeftUpLeg -15.776714 2.519348 -4.687839
LeftLeg 20.383192 -0.000000 -0.000000
LeftFoot -28.570030 26.434648 -10.561148
LeftToeBase 21.748685 -0.000000 -0.000000
RightUpLeg -19.437349 -17.138385 7.024815
RightLeg 41.273054 -0.000000 -0.000000
RightFoot -17.680937 -6.623731 24.134536
RightToeBase 5.928509 -0.000000 -0.000000
473
root 19.254797 35.335248 -19.530785 -171.860197 7.457050 -175.927024
Spine -11.573581 14.138169 -11.358606
Head -5.713969 -12.648178 18.031461
LeftShoulder -1.675374 -22.566170 0.566585
LeftArm -15.069962 14.130850 -69.271737
LeftForeArm -4.165561 -0.000000 0.681167
LeftHand -1.803298 -0.000000 -3.621219
LeftHandThumb1 -26.253704 0.000000 33.147579
RightShoulder -3.296847 -10.389372 14.918776
RightArm 39.023742 -45.398835 45.663484
RightForeArm -21.875117 -0.000000 19.838023
RightHand 3.816627 0.000000 10.573724
RightHandThumb1 -24.326973 -0.000000 -32.862282
LeftUpLeg -15.639495 2.634327 -4.140312
LeftLeg 20.139086 -0.000000 -0.000000
LeftFoot -28.523023 26.717970 -10.472933
LeftToeBase 21.983413 -0.000000 -0.000000
RightUpLeg -21.157345 -18.327358 7.025896
RightLeg 44.085529 -0.000000 -0.000000
RightFoot -13.984900 -4.499646 24.042750
RightToeBase 6.474852 -0.000000 -0.000000
474
root 19.286492 35.385606 -19.494008 -171.660347 8.292376 -175.413502
Spine -12.003421 15.080934 -11.925830
Head -6.264840 -13.066698 19.688714
LeftShoulder -1.209059 -22.714501 1.083740
LeftArm -15.049838 14.209692 -69.191711
LeftForeArm -4.215106 -0.000000 0.596047
LeftHand -1.949224 -0.000000 -4.014411
LeftHandThumb1 -26.253704 0.000000 33.147579
RightShoulder -3.510477 -10.303605 15.494737
RightArm 40.237632 -46.050942 44.322184
RightForeArm -21.960351 -0.000000 19.571017
RightHand 3.918663 -0.000000 10.624194
RightHandThumb1 -24.326973 -0.000000 -32.862282
LeftUpLeg -15.576949 3.248679 -3.661612
LeftLeg 19.758240 -0.000000 -0.000000
LeftFoot -28.387646 26.960549 -10.258832
LeftToeBase 22.116868 -0.000000 -0.000000
RightUpLeg -23.164290 -18.921782 6.943774
RightLeg 46.925964 -0.000000 -0.000000
RightFoot -10.179030 -2.415809 23.976578
RightToeBase 9.365004 -0.000000 -0.000000
475
root 19.297373 35.433203 -19.467641 -171.432653 8.663003 -174.837178
Spine -12.399261 15.515975 -12.150908
Head -6.706169 -13.370728 21.107714
LeftShoulder -0.813917 -22.816150 1.451193
LeftArm -15.088263 14.331437 -69.116720
LeftForeArm -4.310328 -0.000000 0.490507
LeftHand -1.954366 -0.000000 -4.320958
LeftHandThumb1 -26.253704 0.000000 33.147579
RightShoulder -3.696226 -10.335474 15.928251
RightArm 41.306900 -46.537791 43.106700
RightForeArm -22.097925 -0.000000 19.373871
RightHand 3.972642 0.000000 10.723310
RightHandThumb1 -24.326973 -0.000000 -32.862282
LeftUpLeg -15.543840 3.160719 -3.088574
LeftLeg 19.401703 -0.000000 -0.000000
LeftFoot -28.370732 27.462983 -10.139410
LeftToeBase 22.734040 -0.000000 -0.000000
RightUpLeg -25.239548 -19.990329 6.852184
RightLeg 49.652709 -0.000000 -0.000000
RightFoot -6.497227 -0.166691 25.140635
RightToeBase 16.751786 -0.000000 -0.000000
476
root 19.315587 35.482854 -19.431544 -171.271120 9.150924 -174.173851
Spine -12.672264 16.093943 -12.284674
Head -7.168494 -13.716615 22.503983
LeftShoulder -0.318823 -22.952416 1.752076
LeftArm -15.124647 14.497893 -69.013999
LeftForeArm -4.475417 -0.000000 0.401778
LeftHand -2.023540 -0.000000 -4.703373
LeftHandThumb1 -26.253704 0.000000 33.147579
RightShoulder -3.895226 -10.310473 16.390733
RightArm 42.574443 -47.149029 41.520373
RightForeArm -21.915249 -0.000000 19.259280
RightHand 3.944217 0.000000 10.700242
RightHandThumb1 -24.326973 -0.000000 -32.862282
LeftUpLeg -15.456220 3.302935 -2.455317
LeftLeg 19.076747 -0.000000 -0.000000
LeftFoot -28.310882 28.028566 -9.948825
LeftToeBase 22.952716 -0.000000 -0.000000
RightUpLeg -27.195393 -20.686034 6.703318
RightLeg 51.930547 -0.000000 -0.000000
RightFoot -2.975877 1.481481 26.602485
RightToeBase 28.779983 -0.000000 -0.000000
477
root 19.326700 35.530285 -19.391486 -171.123557 9.553796 -173.520825
Spine -12.836662 16.523909 -12.289332
Head -7.739704 -13.919880 23.782222
LeftShoulder 0.114494 -23.089935 1.967434
LeftArm -15.117598 14.658849 -68.819885
LeftForeArm -4.587135 0.000000 0.301529
LeftHand -2.074379 -0.000000 -5.118188
LeftHandThumb1 -26.253704 0.000000 33.147579
RightShoulder -3.999112 -10.170139 16.773096
RightArm 42.915878 -47.137997 41.174711
RightForeArm -22.912133 -0.000000 18.925855
RightHand 4.352317 -0.000000 10.868582
RightHandThumb1 -24.326973 -0.000000 -32.862282
LeftUpLeg -15.401742 3.323068 -1.831782
LeftLeg 18.848555 -0.000000 -0.000000
LeftFoot -28.227082 28.628602 -9.760508
LeftToeBase 22.976430 -0.000000 -0.000000
RightUpLeg -29.131352 -21.286596 6.492511
RightLeg 53.812679 -0.000000 -0.000000
RightFoot 0.098049 2.134215 27.617731
RightToeBase 40.608687 -0.000000 -0.000000
478
root 19.338160 35.572715 -19.353037 -171.112694 9.927030 -172.787293
Spine -12.751548 16.936284 -12.058471
Head -8.399973 -14.097364 24.989957
LeftShoulder 0.574799 -23.288649 2.096602
LeftArm -15.166216 14.889220 -68.646080
LeftForeArm -4.803710 -0.000000 0.240266
LeftHand -2.178153 -0.000000 -5.378500
LeftHandThumb1 -26.253704 0.000000 33.147579
RightShoulder -4.099101 -10.073763 17.114768
RightArm 43.381403 -47.104953 40.566436
RightForeArm -23.572033 -0.000000 18.810610
RightHand 4.581772 0.000000 11.079679
RightHandThumb1 -24.326973 -0.000000 -32.862282
LeftUpLeg -15.253497 3.321290 -1.125199
LeftLeg 18.746204 -0.000000 -0.000000
LeftFoot -28.198956 29.332212 -9.503833
LeftToeBase 22.726771 -0.000000 -0.000000
RightUpLeg -30.840003 -21.702453 6.243290
RightLeg 55.401937 -0.000000 -0.000000
RightFoot 1.154226 2.036503 27.239141
RightToeBase 41.478411 -0.000000 -0.000000
479
root 19.335757 35.613773 -19.317242 -171.049659 10.210896 -172.061456
Spine -12.698881 17.192686 -11.715273
Head -8.913069 -14.092908 26.004208
LeftShoulder 0.941067 -23.404868 2.184202
LeftArm -15.160471 15.305648 -68.505072
LeftForeArm -5.083683 -0.000000 0.146055
LeftHand -2.225496 -0.000000 -5.726185
LeftHandThumb1 -26.253704 0.000000 33.147579
RightShoulder -4.215181 -10.026038 17.424551
RightArm 43.879782 -47.120072 39.794431
RightForeArm -24.006454 0.000000 18.760696
RightHand 4.758219 -0.000000 11.294400
RightHandThumb1 -24.326973 -0.000000 -32.862282
LeftUpLeg -15.193395 3.253266 -0.442491
LeftLeg 18.706119 -0.000000 -0.000000
LeftFoot -28.242863 29.886123 -9.412718
LeftToeBase 22.756873 -0.000000 -0.000000
RightUpLeg -32.606533 -22.164083 5.949982
RightLeg 56.808014 -0.000000 -0.000000
RightFoot -0.323823 0.642834 26.826846
RightToeBase 39.828702 -0.000000 -0.000000
480
root 19.335934 35.655586 -19.282341 -170.975301 10.495368 -171.225004
Spine -12.605430 17.364050 -11.154715
Head -9.419609 -14.074840 26.956188
LeftShoulder 1.231864 -23.495046 2.266175
LeftArm -15.128511 15.391038 -68.269441
LeftForeArm -5.034575 -0.000000 0.019922
LeftHand -2.299880 -0.000000 -6.084856
LeftHandThumb1 -26.253704 0.000000 33.147579
RightShoulder -4.298765 -10.071207 17.730543
RightArm 44.433144 -47.059684 38.943302
RightForeArm -24.317792 -0.000000 18.668015
RightHand 4.735120 -0.000000 11.528719
RightHandThumb1 -24.326973 -0.000000 -32.862282
LeftUpLeg -15.160359 3.260877 0.340897
LeftLeg 18.768421 -0.000000 -0.000000
LeftFoot -28.298522 30.404599 -9.198230
LeftToeBase 22.810743 -0.000000 -0.000000
RightUpLeg -34.364424 -22.612563 5.752403
RightLeg 57.655665 -0.000000 -0.000000
RightFoot -1.909491 -2.944015 28.407413
RightToeBase 40.894715 -0.000000 -0.000000
481
root 19.334800 35.696075 -19.250700 -171.110515 10.748698 -170.361855
Spine -12.156371 17.517427 -10.388907
Head -10.025970 -13.848519 27.873923
LeftShoulder 1.554763 -23.681882 2.255667
LeftArm -15.183953 15.559341 -68.060087
LeftForeArm -5.163379 -0.000000 -0.041792
LeftHand -2.265798 -0.000000 -6.157618
LeftHandThumb1 -26.253704 0.000000 33.147579
RightShoulder -4.239454 -9.924115 17.972424
RightArm 44.413139 -46.786585 38.643703
RightForeArm -24.812810 -0.000000 18.600902
RightHand 4.681613 -0.000000 11.886598
RightHandThumb1 -24.326973 -0.000000 -32.862282
LeftUpLeg -14.906596 3.217335 1.172974
LeftLeg 18.811623 -0.000000 -0.000000
LeftFoot -28.420206 31.024979 -9.064502
LeftToeBase 22.952977 -0.000000 -0.000000
RightUpLeg -35.876536 -23.101195 5.437200
RightLeg 58.092956 -0.000000 -0.000000
RightFoot -3.556499 -7.545619 29.018289
RightToeBase 42.930934 -0.000000 -0.000000
482
root 19.333895 35.737244 -19.218349 -171.300877 10.963409 -169.445020
Spine -11.564775 17.579644 -9.435791
Head -10.605020 -13.592257 28.683058
LeftShoulder 1.777408 -23.824096 2.256374
LeftArm -15.140602 15.799185 -67.904525
LeftForeArm -5.262450 -0.000000 -0.139593
LeftHand -2.258097 -0.000000 -6.102385
LeftHandThumb1 -26.253704 0.000000 33.147579
RightShoulder -4.203452 -9.878989 18.250636
RightArm 44.749647 -46.547094 37.859211
RightForeArm -25.046889 -0.000000 18.504367
RightHand 4.669937 -0.000000 12.186589
RightHandThumb1 -24.326973 -0.000000 -32.862282
LeftUpLeg -14.663929 3.269548 2.054820
LeftLeg 19.010829 -0.000000 -0.000000
LeftFoot -28.499019 31.481366 -8.902449
LeftToeBase 22.901965 -0.000000 -0.000000
RightUpLeg -37.250286 -23.399340 4.936060
RightLeg 58.384172 -0.000000 -0.000000
RightFoot -5.271900 -11.378364 28.607702
RightToeBase 43.607360 -0.000000 -0.000000
